<?xml version="1.0" standalone="no"?>
<!DOCTYPE svg PUBLIC "-//W3C//DTD SVG 20010904//EN"
 "http://www.w3.org/TR/2001/REC-SVG-20010904/DTD/svg10.dtd">
<svg version="1.0" xmlns="http://www.w3.org/2000/svg"
 width="35.000000pt" height="34.000000pt" viewBox="0 0 35.000000 34.000000"
 preserveAspectRatio="xMidYMid meet">
<metadata>
Created by potrace 1.15, written by Peter Selinger 2001-2017
</metadata>
<g transform="translate(0.000000,34.000000) scale(0.100000,-0.100000)"
fill="#000000" stroke="none">
<path d="M64 249 c-51 -26 -61 -102 -19 -144 50 -51 134 -23 154 51 7 28 8 27
26 -24 15 -41 24 -52 41 -52 16 0 26 12 43 51 26 64 26 79 2 79 -14 0 -23 -11
-32 -37 l-12 -37 -14 37 c-15 37 -46 50 -56 25 -4 -9 -6 -7 -6 3 -2 40 -83 70
-127 48z"/>
</g>
</svg>
